<?xml version="1.0" standalone="no"?>
<!DOCTYPE svg PUBLIC "-//W3C//DTD SVG 20010904//EN"
 "http://www.w3.org/TR/2001/REC-SVG-20010904/DTD/svg10.dtd">
<svg version="1.0" xmlns="http://www.w3.org/2000/svg"
 width="653.000000pt" height="653.000000pt" viewBox="0 0 653.000000 653.000000"
 preserveAspectRatio="xMidYMid meet">
<metadata>
Created by potrace 1.11, written by Peter Selinger 2001-2013
</metadata>
<g transform="translate(0.000000,653.000000) scale(0.100000,-0.100000)"
fill="#000000" stroke="none">
<path d="M875 5408 c-64 -23 -116 -72 -147 -137 -15 -33 -16 -144 -17 -1323
l-1 -1288 2580 0 2580 0 -2 1293 c-3 1246 -4 1293 -22 1330 -26 52 -68 93
-123 117 -45 20 -57 20 -2432 19 -1658 0 -2395 -4 -2416 -11z m4542 -440 c180
-180 273 -279 273 -293 0 -33 -28 -65 -58 -65 -22 0 -78 52 -299 273 -194 194
-273 279 -273 295 0 28 34 62 62 62 16 0 103 -81 295 -272z m-211 -213 c183
-182 314 -322 314 -332 0 -32 -29 -63 -59 -63 -24 0 -80 51 -340 310 -171 170
-312 315 -312 322 -3 25 3 43 18 61 38 41 52 30 379 -298z"/>
<path d="M710 2336 c0 -180 2 -209 19 -247 24 -53 68 -100 119 -125 36 -18
121 -19 2422 -22 1785 -2 2395 0 2425 9 56 16 108 56 141 109 l29 45 3 217 4
218 -2581 0 -2581 0 0 -204z m2641 5 c103 -63 66 -205 -57 -219 -41 -4 -47 -2
-85 37 -40 39 -41 44 -36 88 4 38 12 54 41 80 42 39 88 44 137 14z"/>
<path d="M2870 1640 l0 -180 420 0 420 0 0 180 0 180 -420 0 -420 0 0 -180z"/>
<path d="M2520 1329 c-52 -20 -84 -102 -61 -156 7 -16 24 -37 39 -48 26 -20
45 -20 780 -23 837 -3 804 -5 836 63 29 61 13 123 -40 154 -35 21 -46 21 -782
20 -448 0 -757 -4 -772 -10z"/>
</g>
</svg>
